<svg width="56" height="41" viewBox="0 0 56 41" fill="none" xmlns="http://www.w3.org/2000/svg">
<path d="M24 16.5C24 13.2366 24.9384 10.0465 26.6965 7.33309C28.4546 4.61968 30.9534 2.50483 33.8771 1.25599C36.8007 0.00714175 40.0177 -0.319613 43.1214 0.317043C46.2251 0.953699 49.0761 2.52517 51.3137 4.83274C53.5513 7.1403 55.0752 10.0803 55.6926 13.281C56.3099 16.4817 55.9931 19.7993 54.7821 22.8143C53.5711 25.8293 51.5203 28.4062 48.8891 30.2192C46.2579 32.0323 43.1645 33 40 33L40 16.5H24Z" fill="#22C68C"/>
<path d="M32 25C32 28.1645 31.0616 31.2579 29.3035 33.8891C27.5454 36.5203 25.0466 38.5711 22.1229 39.7821C19.1993 40.9931 15.9823 41.3099 12.8786 40.6926C9.77486 40.0752 6.92393 38.5513 4.68629 36.3137C2.44865 34.0761 0.924799 31.2251 0.307435 28.1214C-0.309928 25.0177 0.00692538 21.8007 1.21793 18.8771C2.42893 15.9534 4.47969 13.4546 7.11088 11.6965C9.74206 9.93838 12.8355 9 16 9L16 25H32Z" fill="#22C68C"/>
</svg>
