<?xml version="1.0" encoding="utf-8"?>
<!-- Generator: Adobe Illustrator 24.0.1, SVG Export Plug-In . SVG Version: 6.00 Build 0)  -->
<svg version="1.1" id="Layer_1" xmlns="http://www.w3.org/2000/svg" xmlns:xlink="http://www.w3.org/1999/xlink" x="0px" y="0px"
	 viewBox="0 0 1080 720" style="enable-background:new 0 0 1080 720;" xml:space="preserve">
<style type="text/css">
	.st0{fill:#22C68C;}
</style>
<path class="st0" d="M471.2,291.2c0-56.1,16.1-111,46.4-157.7c30.2-46.7,73.2-83.1,123.5-104.6c50.3-21.5,105.6-27.1,159-16.2
	c53.4,11,102.5,38,140.9,77.7c38.5,39.7,64.7,90.3,75.3,145.4c10.6,55.1,5.2,112.1-15.7,164C980,451.7,944.7,496,899.4,527.2
	c-45.3,31.2-98.5,47.8-152.9,47.8V291.2H471.2z"/>
<path class="st0" d="M608.8,437.4c0,54.4-16.1,107.7-46.4,152.9s-73.2,80.6-123.5,101.4c-50.3,20.8-105.6,26.3-159,15.7
	c-53.4-10.6-102.5-36.8-140.9-75.3s-64.7-87.5-75.3-140.9c-10.6-53.4-5.2-108.7,15.7-159c20.8-50.3,56.1-93.3,101.4-123.5
	c45.3-30.2,98.5-46.4,152.9-46.4v275.3H608.8z"/>
</svg>
